# xmcd
#
# Track frame offsets: 
#        150
#        13714
#        29954
#        46887
#        65765
#        84870
#        101373
#        119963
#        131341
#        151026
#        172438
#        197107
#        213555
#        232757
#        269548
#
# Disc length: 4030 seconds
#
# Revision: 0
# Processed by: cddbd v1.5.2PL0 Copyright (c) Steve Scherf et al.
# Submitted via: ExactAudioCopyFreeDBPlugin 1.0
#
DISCID=d80fbc0f
DTITLE=Chris Farlowe - Hotel Eingang
DYEAR=2008
DGENRE=Blues
TTITLE0=Jealous Man
TTITLE1=Don't Wanna Love You Anymore
TTITLE2=It Should Have Been Me
TTITLE3=So hard To Get Along With
TTITLE4=I've Got Your Love
TTITLE5=The Woman? Or The Blues
TTITLE6=9lbs Of Steel
TTITLE7=Baby's Arms
TTITLE8=I Only Have Love For You
TTITLE9=Fog On The Highway
TTITLE10=I'd Rather Be Lying With You
TTITLE11=That's Why Lovers Have The Blues
TTITLE12=Hotel EIngang
TTITLE13=Tough On Me
TTITLE14=Guitar Don't Lie
EXTD=
EXTT0=
EXTT1=
EXTT2=
EXTT3=
EXTT4=
EXTT5=
EXTT6=
EXTT7=
EXTT8=
EXTT9=
EXTT10=
EXTT11=
EXTT12=
EXTT13=
EXTT14=
PLAYORDER=
